<svg width="28" height="25" viewBox="0 0 28 25" fill="none"
    xmlns="http://www.w3.org/2000/svg">
    <path d="M7.38388 14.592C8.47188 14.912 9.30388 15.52 9.87988 16.416C10.5199 17.248 10.8399 18.272 10.8399 19.488C10.8399 21.024 10.3599 22.272 9.39988 23.232C8.43988 24.192 7.25588 24.672 5.84788 24.672C4.31188 24.672 3.06388 24.192 2.10388 23.232C1.20788 22.208 0.759875 20.96 0.759875 19.488C0.759875 18.72 0.823875 17.984 0.951875 17.28C1.14388 16.512 1.49588 15.424 2.00787 14.016L6.03988 0.767996H10.6479L7.38388 14.592ZM23.7039 14.592C24.7919 14.912 25.6239 15.52 26.1999 16.416C26.8399 17.248 27.1599 18.272 27.1599 19.488C27.1599 21.024 26.6799 22.272 25.7199 23.232C24.7599 24.192 23.5759 24.672 22.1679 24.672C20.6319 24.672 19.3839 24.192 18.4239 23.232C17.5279 22.208 17.0799 20.96 17.0799 19.488C17.0799 18.72 17.1439 17.984 17.2719 17.28C17.4639 16.512 17.8159 15.424 18.3279 14.016L22.3599 0.767996H26.9679L23.7039 14.592Z" fill="white"/>
</svg>
